PathFileType	4	(X/Y/Z)	TVC_9_BWA1_walk_RCNL2025.trc
DataRate	CameraRate	NumFrames	NumMarkers	Units	OrigDataRate	OrigDataStartFrame	OrigNumFrames
100	100	5	27	mm	100	100	397
Frame#	Time	R_Shoulder			L_Shoulder			C7			J_Notch			R_Elbow			L_Elbow			R_Wrist			L_Wrist			R_Asis			L_Asis			R_Psis			L_Psis			Sacral			Thoracic			Sternum			R_Thigh_Lateral			R_Knee_Lateral			R_Shank_Lateral			R_Ankle_Lateral			R_Heel			R_Toe			L_Thigh_Lateral			L_Knee_Lateral			L_Shank_Lateral			L_Ankle_Lateral			L_Heel			L_Toe		
		X1	Y1	Z1	X2	Y2	Z2	X3	Y3	Z3	X4	Y4	Z4	X5	Y5	Z5	X6	Y6	Z6	X7	Y7	Z7	X8	Y8	Z8	X9	Y9	Z9	X10	Y10	Z10	X11	Y11	Z11	X12	Y12	Z12	X13	Y13	Z13	X14	Y14	Z14	X15	Y15	Z15	X16	Y16	Z16	X17	Y17	Z17	X18	Y18	Z18	X19	Y19	Z19	X20	Y20	Z20	X21	Y21	Z21	X22	Y22	Z22	X23	Y23	Z23	X24	Y24	Z24	X25	Y25	Z25	X26	Y26	Z26	X27	Y27	Z27
100	0.99000000	-696.599121	1358.260498	-101.039482	-717.477661	1379.003052	-492.744598	-757.661499	1432.200806	-299.857269	-605.860657	1324.840454	-296.792267	-852.425720	1058.595337	-35.308907	-624.307007	1068.549072	-613.604431	-854.361328	807.025513	-65.728506	-436.883972	909.014282	-616.424774	-661.091553	914.357422	-165.531387	-698.170593	927.695007	-468.592194	-865.915771	941.693787	-239.604462	-878.113037	949.078918	-337.263824	-872.014404	945.386353	-288.434143	-861.236023	1158.289795	-296.554565	-554.977478	1138.392700	-308.891388	-591.468933	527.643982	-101.324364	-557.356384	464.165802	-168.715744	-519.147827	313.876038	-120.535103	-496.574005	83.192558	-192.250977	-547.330933	57.606052	-253.704361	-365.837006	86.555870	-229.325394	-756.194458	561.448364	-489.437836	-807.181763	437.299255	-428.246429	-850.203064	296.866730	-471.811340	-937.443176	88.866676	-395.686615	-995.719116	71.726753	-337.792206	-805.291321	46.094170	-369.223572
101	1.00000000	-687.978027	1356.592163	-99.527328	-710.267761	1378.608643	-491.300720	-749.823975	1431.287720	-298.095184	-598.117188	1323.888184	-295.696564	-841.979919	1056.047974	-33.771885	-617.814026	1068.588501	-613.690186	-844.329987	804.495941	-63.321045	-428.817169	910.926331	-616.686584	-651.263245	913.219238	-165.353592	-689.375793	927.175964	-468.599640	-856.479187	940.332947	-238.967545	-868.934570	947.851929	-336.454193	-862.706879	944.092438	-287.710869	-852.682739	1156.946167	-295.166565	-546.468201	1137.979248	-308.596588	-584.626160	526.155640	-101.003716	-551.106567	462.036255	-168.096909	-513.017456	311.661896	-120.067917	-488.074951	81.631248	-192.020981	-538.143616	56.210537	-254.084610	-356.956451	85.249947	-227.735947	-749.439575	561.188110	-489.583466	-801.413208	437.226959	-428.632782	-846.238098	297.304962	-472.358917	-936.483826	90.487427	-396.464783	-995.300293	74.292381	-338.789734	-804.947754	45.925396	-369.319000
102	1.01000000	-679.260376	1354.944214	-97.900749	-703.069397	1378.346558	-489.747040	-741.979065	1430.479370	-296.188965	-590.392456	1323.112549	-294.443939	-830.996948	1053.298462	-32.120670	-611.699646	1068.650757	-613.672913	-833.675232	801.777588	-60.757113	-421.333603	912.652283	-616.879913	-641.348633	912.239197	-165.124786	-680.377075	926.761780	-468.538574	-846.949219	939.113281	-238.383469	-859.621582	946.688477	-335.704010	-853.285400	942.900879	-287.043739	-844.061218	1155.687012	-293.746399	-537.855713	1137.746338	-308.182251	-577.555542	525.078308	-100.628616	-544.841614	460.109070	-167.399994	-507.532043	309.490570	-119.584381	-481.175537	80.114662	-191.752228	-530.655518	55.149086	-254.424774	-349.669342	83.343445	-226.116043	-742.107910	560.949524	-489.698059	-795.002258	437.144745	-429.040161	-841.781067	297.816620	-472.941650	-935.314636	92.374107	-397.319580	-994.695007	77.264366	-339.883606	-804.535889	45.733891	-369.394653
103	1.02000000	-670.455444	1353.349609	-96.176987	-695.870361	1378.247314	-488.089142	-734.132935	1429.800293	-294.143555	-582.677246	1322.559326	-293.033295	-819.480835	1050.392944	-30.370375	-605.966492	1068.761353	-613.548645	-822.374023	798.914429	-58.059500	-414.446808	914.191864	-617.009918	-631.386108	911.457764	-164.838181	-671.163818	926.469299	-468.385254	-837.345947	938.072327	-237.860794	-850.185425	945.606323	-335.032623	-843.765686	941.839325	-286.446709	-835.384583	1154.549438	-292.315521	-529.148376	1137.719482	-307.635529	-570.311890	524.422058	-100.157631	-538.496460	458.442657	-166.610031	-502.512207	307.428619	-119.086037	-475.714661	78.679199	-191.457947	-524.735046	54.440266	-254.704453	-343.837097	80.883446	-224.563507	-734.107910	560.723816	-489.786041	-787.846069	437.047882	-429.472992	-836.756592	298.422485	-473.557648	-933.875732	94.583740	-398.236664	-993.820068	80.729355	-341.056305	-804.056519	45.512486	-369.448029
104	1.03000000	-661.577271	1351.841187	-94.377426	-688.658508	1378.336548	-486.337341	-726.290039	1429.274292	-291.970428	-574.960815	1322.264160	-291.472656	-807.442688	1047.383057	-28.536787	-600.616577	1068.941772	-613.314575	-810.399933	795.955780	-55.254505	-408.166473	915.544220	-617.083740	-621.422546	910.915344	-164.485306	-661.732666	926.314331	-468.114166	-827.690491	937.242859	-237.401352	-840.640259	944.622681	-334.455292	-834.165375	940.932770	-285.928322	-826.668030	1153.569580	-290.895630	-520.359009	1137.919067	-306.946625	-562.917969	524.196533	-99.549759	-532.020569	457.082336	-165.717590	-497.785370	305.540802	-118.565010	-471.498718	77.363907	-191.144943	-520.204346	54.082077	-254.902924	-339.288574	77.977409	-223.154465	-725.349487	560.505554	-489.859039	-779.837402	436.936035	-429.941071	-831.085693	299.150299	-474.206573	-932.094482	97.184135	-399.194519	-992.570374	84.786880	-342.279663	-803.513550	45.255318	-369.477722
